<svg width="80" height="80" viewBox="0 0 80 80" fill="none" xmlns="http://www.w3.org/2000/svg">
  <defs>
    <linearGradient id="digitalGradient" x1="0%" y1="0%" x2="100%" y2="100%">
      <stop offset="0%" style="stop-color:#667eea" />
      <stop offset="100%" style="stop-color:#764ba2" />
    </linearGradient>
    <linearGradient id="productGradient" x1="0%" y1="0%" x2="100%" y2="100%">
      <stop offset="0%" style="stop-color:#f093fb" />
      <stop offset="100%" style="stop-color:#f5576c" />
    </linearGradient>
  </defs>
  
  <!-- Background circle -->
  <circle cx="40" cy="40" r="35" fill="url(#digitalGradient)" opacity="0.1"/>
  
  <!-- Main smartphone -->
  <rect x="25" y="15" width="30" height="50" rx="6" fill="url(#digitalGradient)" opacity="0.9"/>
  <rect x="28" y="20" width="24" height="35" rx="3" fill="white" opacity="0.95"/>
  
  <!-- Screen content -->
  <rect x="30" y="23" width="20" height="3" rx="1.5" fill="url(#productGradient)" opacity="0.8"/>
  <rect x="30" y="28" width="15" height="2" rx="1" fill="url(#digitalGradient)" opacity="0.6"/>
  <rect x="30" y="32" width="18" height="2" rx="1" fill="url(#digitalGradient)" opacity="0.5"/>
  
  <!-- App grid -->
  <rect x="31" y="37" width="4" height="4" rx="1" fill="url(#productGradient)" opacity="0.7"/>
  <rect x="37" y="37" width="4" height="4" rx="1" fill="url(#digitalGradient)" opacity="0.6"/>
  <rect x="43" y="37" width="4" height="4" rx="1" fill="url(#productGradient)" opacity="0.8"/>
  <rect x="31" y="43" width="4" height="4" rx="1" fill="url(#digitalGradient)" opacity="0.7"/>
  <rect x="37" y="43" width="4" height="4" rx="1" fill="url(#productGradient)" opacity="0.6"/>
  <rect x="43" y="43" width="4" height="4" rx="1" fill="url(#digitalGradient)" opacity="0.8"/>
  
  <!-- Home button -->
  <circle cx="40" cy="58" r="2" fill="url(#digitalGradient)" opacity="0.6"/>
  
  <!-- Floating elements around phone -->
  <g transform="translate(10, 25)">
    <circle cx="5" cy="5" r="4" fill="url(#productGradient)" opacity="0.6">
      <animate attributeName="cy" values="5;0;5" dur="3s" repeatCount="indefinite"/>
    </circle>
    <path d="M3 3 L7 3 L7 7 L3 7 Z M5 1 L5 9 M1 5 L9 5" stroke="white" stroke-width="0.8" opacity="0.8"/>
  </g>
  
  <g transform="translate(60, 30)">
    <rect x="0" y="0" width="8" height="8" rx="2" fill="url(#digitalGradient)" opacity="0.5">
      <animate attributeName="y" values="0;-3;0" dur="4s" repeatCount="indefinite"/>
    </rect>
    <circle cx="4" cy="4" r="1.5" fill="white" opacity="0.8"/>
  </g>
  
  <g transform="translate(8, 50)">
    <polygon points="6,2 10,6 6,10 2,6" fill="url(#productGradient)" opacity="0.6">
      <animate attributeName="opacity" values="0.3;0.8;0.3" dur="2s" repeatCount="indefinite"/>
    </polygon>
    <circle cx="6" cy="6" r="1" fill="white" opacity="0.9"/>
  </g>
  
  <g transform="translate(62, 55)">
    <rect x="0" y="0" width="6" height="6" rx="1" fill="url(#digitalGradient)" opacity="0.5">
      <animateTransform attributeName="transform" type="rotate" values="0 3 3;360 3 3" dur="5s" repeatCount="indefinite"/>
    </rect>
    <rect x="2" y="2" width="2" height="2" fill="white" opacity="0.8"/>
  </g>
  
  <!-- Cloud sync indicators -->
  <g transform="translate(15, 10)">
    <path d="M8 4 Q6 2 4 4 Q2 4 2 6 Q2 8 4 8 L10 8 Q12 8 12 6 Q12 4 10 4" fill="url(#productGradient)" opacity="0.4">
      <animate attributeName="opacity" values="0.2;0.6;0.2" dur="3s" repeatCount="indefinite"/>
    </path>
    <path d="M6 5 L8 3 M8 3 L10 5 M8 3 L8 7" stroke="white" stroke-width="0.8" opacity="0.8"/>
  </g>
  
  <g transform="translate(55, 10)">
    <path d="M8 4 Q6 2 4 4 Q2 4 2 6 Q2 8 4 8 L10 8 Q12 8 12 6 Q12 4 10 4" fill="url(#digitalGradient)" opacity="0.4">
      <animate attributeName="opacity" values="0.6;0.2;0.6" dur="3s" repeatCount="indefinite"/>
    </path>
    <path d="M6 7 L8 5 M8 5 L10 7 M8 5 L8 3" stroke="white" stroke-width="0.8" opacity="0.8"/>
  </g>
</svg>