<svg width="600" height="400" viewBox="0 0 600 400" fill="none" xmlns="http://www.w3.org/2000/svg">
  <!-- Background gradient -->
  <defs>
    <linearGradient id="bgGradient" x1="0%" y1="0%" x2="100%" y2="100%">
      <stop offset="0%" style="stop-color:#667eea;stop-opacity:0.1" />
      <stop offset="100%" style="stop-color:#764ba2;stop-opacity:0.1" />
    </linearGradient>
    <linearGradient id="primaryGradient" x1="0%" y1="0%" x2="100%" y2="100%">
      <stop offset="0%" style="stop-color:#667eea" />
      <stop offset="100%" style="stop-color:#764ba2" />
    </linearGradient>
    <linearGradient id="accentGradient" x1="0%" y1="0%" x2="100%" y2="100%">
      <stop offset="0%" style="stop-color:#f093fb" />
      <stop offset="100%" style="stop-color:#f5576c" />
    </linearGradient>
  </defs>
  
  <!-- Background -->
  <rect width="600" height="400" fill="url(#bgGradient)" rx="20"/>
  
  <!-- Floating elements -->
  <circle cx="100" cy="80" r="3" fill="url(#accentGradient)" opacity="0.6">
    <animate attributeName="cy" values="80;60;80" dur="3s" repeatCount="indefinite"/>
  </circle>
  <circle cx="520" cy="120" r="2" fill="url(#primaryGradient)" opacity="0.4">
    <animate attributeName="cy" values="120;100;120" dur="4s" repeatCount="indefinite"/>
  </circle>
  <circle cx="80" cy="300" r="2.5" fill="url(#accentGradient)" opacity="0.5">
    <animate attributeName="cy" values="300;280;300" dur="3.5s" repeatCount="indefinite"/>
  </circle>
  
  <!-- Main illustration -->
  <g transform="translate(150, 50)">
    <!-- Computer/Laptop -->
    <rect x="0" y="150" width="300" height="180" rx="15" fill="url(#primaryGradient)" opacity="0.9"/>
    <rect x="15" y="165" width="270" height="150" rx="8" fill="#ffffff" opacity="0.95"/>
    
    <!-- Screen content -->
    <rect x="30" y="180" width="240" height="8" rx="4" fill="url(#primaryGradient)" opacity="0.3"/>
    <rect x="30" y="200" width="180" height="6" rx="3" fill="url(#primaryGradient)" opacity="0.2"/>
    <rect x="30" y="220" width="200" height="6" rx="3" fill="url(#primaryGradient)" opacity="0.2"/>
    
    <!-- Code blocks -->
    <rect x="30" y="240" width="60" height="40" rx="6" fill="url(#accentGradient)" opacity="0.8"/>
    <rect x="100" y="240" width="60" height="40" rx="6" fill="url(#primaryGradient)" opacity="0.6"/>
    <rect x="170" y="240" width="60" height="40" rx="6" fill="url(#accentGradient)" opacity="0.7"/>
    
    <!-- Laptop base -->
    <ellipse cx="150" cy="340" rx="160" ry="15" fill="url(#primaryGradient)" opacity="0.4"/>
  </g>
  
  <!-- Security shield -->
  <g transform="translate(50, 100)">
    <path d="M40 20 L40 50 Q40 65 25 70 Q10 65 10 50 L10 20 Q10 15 15 15 L35 15 Q40 15 40 20 Z" fill="url(#accentGradient)" opacity="0.8"/>
    <path d="M25 30 L20 35 L23 38 L25 36 L30 32" stroke="white" stroke-width="2" fill="none" stroke-linecap="round" stroke-linejoin="round"/>
  </g>
  
  <!-- Globe/Network -->
  <g transform="translate(480, 80)">
    <circle cx="40" cy="40" r="35" fill="none" stroke="url(#primaryGradient)" stroke-width="2" opacity="0.6"/>
    <ellipse cx="40" cy="40" rx="35" ry="15" fill="none" stroke="url(#primaryGradient)" stroke-width="1.5" opacity="0.4"/>
    <ellipse cx="40" cy="40" rx="15" ry="35" fill="none" stroke="url(#primaryGradient)" stroke-width="1.5" opacity="0.4"/>
    <line x1="5" y1="40" x2="75" y2="40" stroke="url(#primaryGradient)" stroke-width="1.5" opacity="0.4"/>
    
    <!-- Connection dots -->
    <circle cx="25" cy="25" r="2" fill="url(#accentGradient)">
      <animate attributeName="opacity" values="0.3;1;0.3" dur="2s" repeatCount="indefinite"/>
    </circle>
    <circle cx="55" cy="55" r="2" fill="url(#accentGradient)">
      <animate attributeName="opacity" values="1;0.3;1" dur="2s" repeatCount="indefinite"/>
    </circle>
    <circle cx="55" cy="25" r="2" fill="url(#accentGradient)">
      <animate attributeName="opacity" values="0.5;1;0.5" dur="1.5s" repeatCount="indefinite"/>
    </circle>
  </g>
  
  <!-- Mobile device -->
  <g transform="translate(420, 200)">
    <rect x="0" y="0" width="60" height="100" rx="12" fill="url(#primaryGradient)" opacity="0.8"/>
    <rect x="5" y="8" width="50" height="70" rx="6" fill="white" opacity="0.9"/>
    <rect x="10" y="15" width="40" height="4" rx="2" fill="url(#primaryGradient)" opacity="0.3"/>
    <rect x="10" y="25" width="30" height="3" rx="1.5" fill="url(#primaryGradient)" opacity="0.2"/>
    <rect x="10" y="35" width="35" height="3" rx="1.5" fill="url(#primaryGradient)" opacity="0.2"/>
    
    <!-- App icons -->
    <rect x="12" y="45" width="12" height="12" rx="3" fill="url(#accentGradient)" opacity="0.7"/>
    <rect x="28" y="45" width="12" height="12" rx="3" fill="url(#primaryGradient)" opacity="0.6"/>
    <rect x="12" y="60" width="12" height="12" rx="3" fill="url(#accentGradient)" opacity="0.6"/>
    <rect x="28" y="60" width="12" height="12" rx="3" fill="url(#primaryGradient)" opacity="0.7"/>
  </g>
  
  <!-- Decorative elements -->
  <g transform="translate(300, 30)">
    <polygon points="20,5 25,15 15,15" fill="url(#accentGradient)" opacity="0.6">
      <animateTransform attributeName="transform" type="rotate" values="0 20 10;360 20 10" dur="8s" repeatCount="indefinite"/>
    </polygon>
  </g>
  
  <g transform="translate(500, 300)">
    <rect x="0" y="0" width="15" height="15" rx="3" fill="url(#primaryGradient)" opacity="0.5">
      <animateTransform attributeName="transform" type="rotate" values="0 7.5 7.5;360 7.5 7.5" dur="6s" repeatCount="indefinite"/>
    </rect>
  </g>
</svg>