<svg width="80" height="80" viewBox="0 0 80 80" fill="none" xmlns="http://www.w3.org/2000/svg">
  <defs>
    <linearGradient id="vpnGradient" x1="0%" y1="0%" x2="100%" y2="100%">
      <stop offset="0%" style="stop-color:#667eea" />
      <stop offset="100%" style="stop-color:#764ba2" />
    </linearGradient>
    <linearGradient id="shieldGradient" x1="0%" y1="0%" x2="100%" y2="100%">
      <stop offset="0%" style="stop-color:#f093fb" />
      <stop offset="100%" style="stop-color:#f5576c" />
    </linearGradient>
  </defs>
  
  <!-- Background circle -->
  <circle cx="40" cy="40" r="35" fill="url(#vpnGradient)" opacity="0.1"/>
  
  <!-- Main shield -->
  <path d="M40 10 L55 18 L55 35 Q55 50 40 58 Q25 50 25 35 L25 18 L40 10 Z" fill="url(#shieldGradient)" opacity="0.9"/>
  
  <!-- Inner shield details -->
  <path d="M40 16 L50 22 L50 35 Q50 46 40 52 Q30 46 30 35 L30 22 L40 16 Z" fill="white" opacity="0.2"/>
  
  <!-- Lock icon in center -->
  <rect x="36" y="32" width="8" height="10" rx="1" fill="white" opacity="0.9"/>
  <path d="M38 32 L38 29 Q38 27 40 27 Q42 27 42 29 L42 32" stroke="white" stroke-width="1.5" fill="none" opacity="0.9"/>
  
  <!-- Network connections -->
  <circle cx="20" cy="25" r="3" fill="url(#vpnGradient)" opacity="0.7">
    <animate attributeName="opacity" values="0.3;1;0.3" dur="2s" repeatCount="indefinite"/>
  </circle>
  <circle cx="60" cy="35" r="3" fill="url(#vpnGradient)" opacity="0.7">
    <animate attributeName="opacity" values="1;0.3;1" dur="2s" repeatCount="indefinite"/>
  </circle>
  <circle cx="15" cy="55" r="2.5" fill="url(#vpnGradient)" opacity="0.6">
    <animate attributeName="opacity" values="0.5;1;0.5" dur="1.5s" repeatCount="indefinite"/>
  </circle>
  <circle cx="65" cy="60" r="2.5" fill="url(#vpnGradient)" opacity="0.6">
    <animate attributeName="opacity" values="1;0.5;1" dur="1.5s" repeatCount="indefinite"/>
  </circle>
  
  <!-- Connection lines -->
  <line x1="23" y1="27" x2="32" y2="32" stroke="url(#vpnGradient)" stroke-width="1" opacity="0.4">
    <animate attributeName="opacity" values="0.2;0.6;0.2" dur="2s" repeatCount="indefinite"/>
  </line>
  <line x1="57" y1="37" x2="48" y2="32" stroke="url(#vpnGradient)" stroke-width="1" opacity="0.4">
    <animate attributeName="opacity" values="0.6;0.2;0.6" dur="2s" repeatCount="indefinite"/>
  </line>
  <line x1="18" y1="52" x2="32" y2="45" stroke="url(#vpnGradient)" stroke-width="1" opacity="0.3">
    <animate attributeName="opacity" values="0.1;0.5;0.1" dur="1.5s" repeatCount="indefinite"/>
  </line>
  <line x1="62" y1="57" x2="48" y2="45" stroke="url(#vpnGradient)" stroke-width="1" opacity="0.3">
    <animate attributeName="opacity" values="0.5;0.1;0.5" dur="1.5s" repeatCount="indefinite"/>
  </line>
</svg>